:SAMPLES-PER-SECOND 24
:FULLY-SPECIFIED
:DEGREES
198
root  6.48481 39.4029 5.48276 7.38599 -23.2432 0.28595
RightUpLeg  -18.0275 8.76778 -10.1691
RightLeg  22.7526 -3.98436 -2.0488
RightFoot  -8.96523 -0.171369 5.32077
RightToes  -2.08645e-008 3.77894e-005 6.81332e-007
Spine  3.70659 -1.84976 -3.31179
Spine1  8.27676 -3.52983 6.24644
HEad  -30.6951 21.6681 -4.91334
LeftShoulder1  8.05579 -13.768 -40.4139
LeftArm  -9.07377 15.026 -34.3181
LeftForeArm  100.93 -80.0796 -96.0703
LeftHand  -0.799627 -0.0436498 17.1313
RightShoulder  3.89413 6.4549 33.2195
RightArm  12.7291 -22.3817 35.1648
RightForeArm  120.703 78.5207 119.429
RightHand  -0.234332 8.70551 -2.3125
LeftUpLeg  -6.42575 2.29189 12.9816
LeftLeg  25.2167 11.8624 6.36035
LeftFoot  0.64051 2.3013 -21.7359
LeftToes  1.24767e-006 1.47042e-008 1.32732e-009
199
root  6.16255 40.4868 5.57449 9.48999 -27.5937 0.00671387
RightUpLeg  -16.2014 5.57458 -8.87345
RightLeg  12.4548 2.32161 -1.16629
RightFoot  -2.47088 -0.54737 6.79782
RightToes  -2.08645e-008 3.77894e-005 6.81332e-007
Spine  2.88726 -2.2699 -4.0472
Spine1  4.38462 -3.93928 7.47975
HEad  -27.0802 26.2878 -6.76443
LeftShoulder1  7.29733 -13.0552 -37.9615
LeftArm  -5.06567 12.5694 -38.1777
LeftForeArm  126.946 -78.8779 -119.132
LeftHand  -0.673728 -0.532074 13.3081
RightShoulder  3.67543 6.32043 31.5241
RightArm  17.8464 -24.7157 32.3977
RightForeArm  139.541 75.9189 135.88
RightHand  0.0172402 9.86444 -0.274577
LeftUpLeg  -6.24525 11.1519 13.3723
LeftLeg  20.9755 11.2174 5.03463
LeftFoot  10.3195 3.47169 -18.317
LeftToes  1.24767e-006 1.47042e-008 1.32732e-009
200
root  5.85729 40.9708 5.56849 10.6726 -32.0466 -0.580261
RightUpLeg  -15.9064 1.11062 -6.72261
RightLeg  10.7133 3.11633 -1.47477
RightFoot  -0.110076 -0.778478 7.96328
RightToes  -2.08645e-008 3.77894e-005 6.81332e-007
Spine  2.68676 -2.72556 -5.70719
Spine1  2.13251 -4.77204 10.4516
HEad  -26.0257 30.5939 -8.30656
LeftShoulder1  6.44699 -12.1975 -35.0406
LeftArm  -0.743096 9.02816 -38.2469
LeftForeArm  151.531 -75.2062 -140.384
LeftHand  -0.513517 -1.27863 9.10828
RightShoulder  3.53819 6.33991 30.0336
RightArm  22.2077 -23.8241 29.3684
RightForeArm  146.202 73.6038 143.429
RightHand  0.334873 9.82192 2.15457
LeftUpLeg  -4.86352 11.7251 13.7269
LeftLeg  18.281 10.0539 4.00697
LeftFoot  12.0082 3.16763 -15.5492
LeftToes  1.24767e-006 1.47042e-008 1.32732e-009
201
root  5.57398 40.7909 5.42234 10.2423 -35.3679 -0.504089
RightUpLeg  -15.8696 -0.901847 -5.89417
RightLeg  16.0284 -4.55326 -1.98466
RightFoot  -2.4293 -0.472478 5.84026
RightToes  -2.08645e-008 3.77894e-005 6.81332e-007
Spine  2.97522 -3.16541 -7.92716
Spine1  1.86447 -5.72512 13.1748
HEad  -27.1569 33.3604 -9.82394
LeftShoulder1  5.61698 -11.3267 -31.8746
LeftArm  3.6852 1.3592 -35.7498
LeftForeArm  162.279 -71.2489 -150.45
LeftHand  -0.407039 -1.8751 6.69099
RightShoulder  3.37654 6.20674 28.8333
RightArm  23.0471 -22.0759 28.7689
RightForeArm  146.672 72.728 145.391
RightHand  0.220844 8.74061 1.4101
LeftUpLeg  -3.61236 3.71978 13.235
LeftLeg  18.6287 8.40072 3.46541
LeftFoot  8.35727 2.89656 -16.8638
LeftToes  1.24767e-006 1.47042e-008 1.32732e-009
202
root  5.32425 40.0478 5.28245 9.5177 -38.6324 -1.24158
RightUpLeg  -15.1356 -3.58838 -4.23255
RightLeg  20.3008 -5.94956 -2.64344
RightFoot  -7.46447 -0.16118 3.26241
RightToes  -2.08645e-008 3.77894e-005 6.81332e-007
Spine  3.99867 -3.15614 -7.28553
Spine1  1.82107 -5.65099 12.6039
HEad  -29.2984 34.8014 -11.8556
LeftShoulder1  4.91183 -10.4721 -29.1144
LeftArm  5.0452 -9.37037 -31.9278
LeftForeArm  166.275 -68.7869 -154.497
LeftHand  -0.352349 -2.01762 5.71333
RightShoulder  3.20593 5.92372 28.0477
RightArm  20.6633 -21.2317 30.1349
RightForeArm  145.672 73.4556 143.659
RightHand  0.157502 8.82216 0.8914
LeftUpLeg  -1.9129 -2.78731 13.1172
LeftLeg  21.2758 8.19509 3.83334
LeftFoot  2.87149 2.64846 -21.172
LeftToes  1.24767e-006 1.47042e-008 1.32732e-009
203
root  5.1414 39.1031 5.17576 10.4291 -43.3723 -3.47192
RightUpLeg  -16.9153 -1.05133 -2.22478
RightLeg  24.4631 -4.83393 -2.62813
RightFoot  -13.0379 -0.0728182 0.97328
RightToes  -2.08645e-008 3.77894e-005 6.81332e-007
Spine  4.36055 -2.47229 -4.57363
Spine1  2.48641 -4.62616 10.67
HEad  -32.8507 36.3843 -14.8077
LeftShoulder1  4.61058 -9.99983 -28.0918
LeftArm  1.32726 -19.4742 -27.0473
LeftForeArm  168.049 -68.5074 -155.062
LeftHand  -0.363833 -2.22677 5.74392
RightShoulder  3.19646 5.83639 28.2713
RightArm  16.8661 -19.2179 31.511
RightForeArm  136.916 76.3763 133.551
RightHand  -0.097174 8.86958 -1.19544
LeftUpLeg  -0.187282 -1.61085 14.1731
LeftLeg  24.9907 9.40168 5.08402
LeftFoot  -3.84147 1.69796 -25.2426
LeftToes  1.24767e-006 1.47042e-008 1.32732e-009
204
root  5.02835 38.3734 5.00191 11.1437 -48.3068 -5.39764
RightUpLeg  -19.8324 4.22506 -0.947484
RightLeg  30.1395 -5.41683 -3.63849
RightFoot  -16.3234 -0.123691 -0.361635
RightToes  -2.08645e-008 3.77894e-005 6.81332e-007
Spine  5.32438 -1.59204 -3.85995
Spine1  4.09924 -3.9067 10.1199
HEad  -38.6121 38.3308 -19.3569
LeftShoulder1  4.74632 -10.1316 -28.7714
LeftArm  -4.18677 -24.8426 -23.2337
LeftForeArm  167.363 -70.0094 -153.014
LeftHand  -0.451867 -2.41874 6.92479
RightShoulder  3.41321 6.08478 29.6757
RightArm  12.3125 -15.875 32.8062
RightForeArm  108.096 79.9046 101.904
RightHand  -0.362766 7.91028 -3.52424
LeftUpLeg  -0.427172 3.32792 15.5839
LeftLeg  31.533 8.90896 6.1742
LeftFoot  -8.12332 0.873983 -28.2222
LeftToes  1.24767e-006 1.47042e-008 1.32732e-009
